<svg xmlns="http://www.w3.org/2000/svg" viewBox="0 0 512 512">
  <path fill="#437031" d="M256,40c-15,0-25,15-20,35c5,20,15,40,20,55c2,8,10,15,18,12c8-3,12-10,10-18c-5-15-15-35-20-50C262,65,265,60,270,60s15,5,25,15c5,5,12,5,17,0s5-12,0-17C295,45,275,40,256,40z"/>
  
  <path fill="#d6603a" d="M256,130c-50,0-100,10-130,45c-25,30-35,80-20,135c15,55,60,130,140,170c5,3,15,3,20,0c80-40,125-115,140-170c15-55,5-105-20-135C356,140,306,130,256,130z M210,200c10,0,15,10,15,20s-5,20-15,20s-15-10-15-20S200,200,210,200z"/>
</svg>